<svg width="810" height="701" viewBox="0 0 810 701" fill="none" xmlns="http://www.w3.org/2000/svg">
<rect width="810" height="701" fill="#FFEEF4"/>
<g filter="url(#filter0_d_8450_2721)">
<path fill-rule="evenodd" clip-rule="evenodd" d="M190 114C190 100.193 201.193 89 215 89H438.5C658 89 699.5 453.5 438.5 490H319.5V603.5C319.5 617.307 308.307 628.5 294.5 628.5H215C201.193 628.5 190 617.307 190 603.5V114Z" fill="#FE8BB4" shape-rendering="crispEdges"/>
</g>
<path fill-rule="evenodd" clip-rule="evenodd" d="M527.5 294C527.5 353.647 472.431 402 404.5 402C336.569 402 281.5 353.647 281.5 294C281.5 234.353 336.569 186 404.5 186C472.431 186 527.5 234.353 527.5 294ZM382.5 293.5C382.5 316.972 370.636 336 356 336C341.364 336 329.5 316.972 329.5 293.5C329.5 270.028 341.364 251 356 251C370.636 251 382.5 270.028 382.5 293.5ZM452 336C466.636 336 478.5 316.972 478.5 293.5C478.5 270.028 466.636 251 452 251C437.364 251 425.5 270.028 425.5 293.5C425.5 316.972 437.364 336 452 336Z" fill="#7BB4FF" fill-opacity="0.28"/>
<path fill-rule="evenodd" clip-rule="evenodd" d="M527.5 294C527.5 353.647 472.431 402 404.5 402C336.569 402 281.5 353.647 281.5 294C281.5 234.353 336.569 186 404.5 186C472.431 186 527.5 234.353 527.5 294ZM478.5 293.5C478.5 316.972 466.636 336 452 336C437.364 336 425.5 316.972 425.5 293.5C425.5 270.028 437.364 251 452 251C466.636 251 478.5 270.028 478.5 293.5ZM356 336C370.636 336 382.5 316.972 382.5 293.5C382.5 270.028 370.636 251 356 251C341.364 251 329.5 270.028 329.5 293.5C329.5 316.972 341.364 336 356 336Z" fill="#FFEEF4"/>
<defs>
<filter id="filter0_d_8450_2721" x="180" y="89" width="439.022" height="551.5" filterUnits="userSpaceOnUse" color-interpolation-filters="sRGB">
<feFlood flood-opacity="0" result="BackgroundImageFix"/>
<feColorMatrix in="SourceAlpha" type="matrix" values="0 0 0 0 0 0 0 0 0 0 0 0 0 0 0 0 0 0 127 0" result="hardAlpha"/>
<feOffset dx="-10" dy="12"/>
<feComposite in2="hardAlpha" operator="out"/>
<feColorMatrix type="matrix" values="0 0 0 0 0.411765 0 0 0 0 0.992157 0 0 0 0 0.498039 0 0 0 1 0"/>
<feBlend mode="normal" in2="BackgroundImageFix" result="effect1_dropShadow_8450_2721"/>
<feBlend mode="normal" in="SourceGraphic" in2="effect1_dropShadow_8450_2721" result="shape"/>
</filter>
</defs>
</svg>
